<mxfile host="app.diagrams.net" modified="2024-07-11T10:55:00.317Z" agent="Mozilla/5.0 (Windows NT 10.0; Win64; x64) AppleWebKit/537.36 (KHTML, like Gecko) Chrome/126.0.0.0 Safari/537.36" version="24.6.4" etag="CNei28wqbPgelJ2qHvub" type="github">
  <diagram name="Страница — 1" id="bWWINippJzeuXx2Keyef">
    <mxGraphModel>
      <root>
        <mxCell id="0" />
        <mxCell id="1" parent="0" />
      </root>
    </mxGraphModel>
  </diagram>
</mxfile>
